<?xml version="1.0" encoding="UTF-8"?>
<svg id="Layer_2" data-name="Layer 2" xmlns="http://www.w3.org/2000/svg" viewBox="0 0 95.6 67.5">
  <defs>
    <style>
      .cls-1 {
        stroke-width: 0px;
      }
    </style>
  </defs>
  <g id="Layer_1-2" data-name="Layer 1">
    <path class="cls-1" d="m39.5,59.4v4.3h13.4c1,0,1.9.8,1.9,1.9s-.8,1.9-1.9,1.9h-30.5c-1,0-1.9-.8-1.9-1.9s.8-1.9,1.9-1.9h13.4v-4.3c0-1,.8-1.9,1.9-1.9,1,.1,1.8.9,1.8,1.9ZM3.8,6.8v40.8c0,1.7,1.4,3,3,3h8.8c.2-3.9,2.1-6.6,5.2-7.4,7.1-1.8,9.5-3.9,10.4-5.1-.6-.4-1.1-.9-1.6-1.5-4.1-4.6-3.5-12.5-3.4-13.4.5-9.2,7.3-11.5,11.3-11.4,4-.1,10.8,2.1,11.3,11.4.1.8.7,8.7-3.4,13.4-.4.5-.9.9-1.4,1.3.7,1.1,3.1,3.4,10.5,5.2,3.1.8,5,3.4,5.2,7.4h8.8c1.7,0,3-1.4,3-3v-8.7c0-1,.8-1.9,1.9-1.9,1,0,1.9.8,1.9,1.9v8.7c0,3.7-3,6.8-6.8,6.8H6.8c-3.7,0-6.8-3-6.8-6.8V6.8C0,3.1,3,0,6.8,0h39.5c1,0,1.9.8,1.9,1.9s-.8,1.9-1.9,1.9H6.8c-1.7,0-3,1.4-3,3Zm28.6,27.5c1.2,1.4,2.9,2,5,2.1h.1c2.2,0,3.8-.7,5-2.1,3.2-3.6,2.5-10.5,2.5-10.6v-.1c-.4-7.7-6.3-7.9-7.5-7.8h-.3c-1.6,0-6.9.6-7.2,7.8v.1c-.1.1-.8,7,2.4,10.6Zm-13.1,16.3h36.5c-.1-1.6-.7-3.3-2.4-3.7-8.6-2.2-11.8-5.1-13-7.2-.9.2-1.9.4-2.9.4h-.4c-.9,0-1.8-.1-2.6-.3-1.2,2.1-4.4,5-12.9,7.1-1.6.4-2.1,2.1-2.3,3.7ZM95.6,6.9v18.2c0,3.7-3,6.8-6.8,6.8h-16.1l-8.5,8.2c-.4.3-.8.5-1.3.5-.2,0-.5,0-.7-.2-.7-.3-1.1-1-1.1-1.7v-6.9h-2c-3.7,0-6.8-3-6.8-6.8V6.8c0-3.7,3-6.8,6.8-6.8h29.8c3.6.1,6.7,3.1,6.7,6.9Zm-3.8,0c0-1.7-1.4-3-3-3h-29.8c-1.7,0-3,1.4-3,3v18.2c0,1.7,1.4,3,3,3h3.8c1,0,1.9.8,1.9,1.9v4.3l5.9-5.7c.3-.3.8-.5,1.3-.5h16.9c1.7,0,3-1.4,3-3V6.9h0Zm-17.9,7.2c-1.3,0-2.4,1.1-2.4,2.4s1.1,2.4,2.4,2.4,2.4-1.1,2.4-2.4-1.1-2.4-2.4-2.4Zm-9.2,0c-1.3,0-2.4,1.1-2.4,2.4s1.1,2.4,2.4,2.4,2.4-1.1,2.4-2.4-1.1-2.4-2.4-2.4Zm18.4,0c-1.3,0-2.4,1.1-2.4,2.4s1.1,2.4,2.4,2.4,2.4-1.1,2.4-2.4-1.1-2.4-2.4-2.4Z"/>
  </g>
</svg>